<svg width="389" height="596" viewBox="0 0 389 596" fill="none" xmlns="http://www.w3.org/2000/svg">
<path d="M352.525 73.3063C320.485 38.997 276.219 16.267 219.726 5.11609C176.767 -3.36349 138.623 -1.05349 105.419 12.1047C52.798 32.5631 18.0052 78.0911 0.954861 148.604L109.32 169.993C113.415 149.251 123.403 130.557 139.265 113.669C155.147 96.8538 177.555 91.3016 206.49 97.0129C235.916 102.821 254.66 114.624 262.631 132.369C270.654 150.192 272.783 168.554 269.045 187.494C265.785 204.009 254.545 217.486 241.847 229.21C234.797 236.126 226.132 242.076 215.828 247.021C215.828 247.021 149.636 273.107 117.87 298.295C99.4676 312.877 92.9302 338.925 84.1485 376.343C83.5526 379.018 83.4689 384.789 92.8406 386.639C102.245 388.495 168.733 401.619 177.088 403.268C185.477 404.924 188.436 399.073 189.084 396.307C192.378 382.727 195.276 375.979 199.364 368.547C207.039 354.503 222.524 344.01 239.2 335.59L273.075 320.93C304.156 305.242 329.016 292.275 341.183 280.65C361.743 261.694 378.541 236.616 384.944 204.175C395.357 151.247 384.551 107.681 352.525 73.3063ZM127.929 461.042C90.8316 452.528 54.926 472.302 45.7518 512.571C36.6234 552.781 60.6013 585.329 97.7439 593.784C136.479 602.621 171.391 583.57 180.598 543.308C189.707 503.026 166.697 469.886 127.929 461.042Z" fill="#5C9DDA"/>
</svg>
